<svg width="193" height="192" viewBox="0 0 193 192" fill="none" xmlns="http://www.w3.org/2000/svg">
<path d="M170.867 54.8692C173.803 56.079 175.517 59.7839 177.144 62.3238C177.466 62.8255 177.466 62.8255 177.795 63.3411C178.404 64.2965 179.009 65.252 179.615 66.2108C179.755 66.4308 179.895 66.6508 180.038 66.8776C189.815 82.4535 194.175 99.2906 191.162 117.42C191.12 117.681 191.074 117.942 191.032 118.214C189.633 126.153 185.696 133.367 181.364 140.103C181.06 140.581 181.06 140.581 180.745 141.069C178.313 144.846 175.689 148.362 172.75 151.772C171.581 153.129 170.496 154.545 169.425 155.978C164.572 162.422 159.257 168.334 151.797 171.853C151.573 171.956 151.349 172.063 151.118 172.173C146.587 174.204 142.447 174.671 137.549 174.62C136.95 174.616 136.348 174.616 135.75 174.616C134.501 174.613 133.255 174.606 132.009 174.596C130.414 174.582 128.818 174.575 127.226 174.572C125.694 174.568 124.164 174.561 122.635 174.554C122.201 174.551 122.201 174.551 121.757 174.551C120.938 174.548 120.116 174.541 119.297 174.534C119.056 174.53 118.818 174.53 118.569 174.53C117.191 174.517 115.886 174.386 114.531 174.128C114.552 174.475 114.573 174.819 114.594 175.177C114.675 176.489 114.752 177.799 114.829 179.112C114.864 179.675 114.899 180.239 114.934 180.799C115.161 184.539 115.28 188.254 115.231 192C112.159 191.467 110.353 188.962 108.397 186.714C107.701 185.989 107.012 185.353 106.246 184.707C104.545 183.27 102.967 181.724 101.389 180.163C101.105 179.885 100.818 179.61 100.528 179.325C98.1766 177.008 96.0106 174.582 93.8867 172.066C92.3506 170.258 90.7305 168.547 89.0754 166.846C87.2104 164.921 85.5273 162.986 84.0892 160.725C83.7428 160.212 83.7428 160.212 83.3894 159.693C83.0884 157.827 83.3159 156.858 84.3971 155.291C85.6498 153.665 87.0389 152.174 88.4491 150.682C89.5758 149.469 90.622 148.207 91.6718 146.932C93.0294 145.293 94.4221 143.685 95.8182 142.076C96.3466 141.464 96.8714 140.846 97.3963 140.231C99.7862 137.433 102.337 134.917 105.077 132.449C106.487 131.171 107.859 129.858 109.216 128.525C109.419 128.329 109.622 128.129 109.832 127.927C111.837 126.102 111.837 126.102 112.432 123.606C110.186 123.376 108.936 123.957 107.183 125.325C106.487 125.961 105.822 126.617 105.171 127.298C104.499 127.961 103.814 128.569 103.093 129.178C101.48 130.552 99.9646 132.006 98.4565 133.487C98.1801 133.762 97.9002 134.034 97.6132 134.316C95.9337 135.983 94.3801 137.667 92.9104 139.516C91.7452 140.918 90.4821 142.224 89.2189 143.544C88.2181 144.592 87.2279 145.647 86.2761 146.74C84.9325 148.276 83.4628 149.685 81.9897 151.101C71.3979 146.273 62.5697 141.162 55.7464 131.511C55.6065 131.315 55.4665 131.116 55.3195 130.913C53.4475 128.267 51.4355 125.414 51.1206 122.118C50.9667 120.585 50.6902 119.994 49.4935 118.929C48.6992 118.324 47.8839 117.76 47.0547 117.2C45.9979 116.427 45.2806 115.739 44.5493 114.671C44.3918 113.564 44.3708 112.928 44.9202 111.942C46.0399 111.34 46.8412 111.619 48.0484 111.921C48.8112 112.327 49.4515 112.78 50.1479 113.296C50.2633 113.182 50.3788 113.069 50.4978 112.952C50.2948 112.629 50.0919 112.303 49.8819 111.969C44.2169 102.855 44.2169 102.855 44.8992 99.2047C45.4031 98.3833 45.9489 97.83 46.6488 97.1426C48.5558 98.6514 49.1051 100.445 49.8644 102.683C50.1024 103.367 50.3403 104.047 50.5783 104.728C50.6797 105.027 50.7847 105.329 50.8897 105.639C51.1941 106.498 51.1941 106.498 51.8974 107.453C52.5797 107.725 52.5797 107.725 53.339 107.862C54.0109 108 54.0109 108 54.6967 108.141C54.3328 106.357 53.8814 104.697 53.2551 102.985C52.1703 99.8405 52.6147 97.2526 53.2971 94.0494C55.6135 94.3072 55.6135 94.3072 56.7962 95.0805C56.9361 95.9741 57.0201 96.823 57.0796 97.7234C57.6709 103.879 60.7676 108.917 65.5439 112.952C68.9031 115.557 72.7451 115.863 76.895 115.788C77.5004 115.784 77.5004 115.784 78.1197 115.781C80.4326 115.784 80.4326 115.784 82.6895 115.358C82.3921 115.145 82.3921 115.145 82.0877 114.928C77.5319 111.584 74.4527 106.986 71.9963 101.995C71.8213 101.648 71.8213 101.648 71.6394 101.291C70.8661 99.6481 70.3447 97.9468 70.4427 96.1115C71.1425 95.4242 71.1425 95.4242 72.1048 95.187C73.4309 95.462 73.5359 95.6338 74.2707 96.6924C74.8516 97.6341 75.3764 98.5861 75.8838 99.5725C77.4059 102.528 79.2639 104.796 81.6398 107.109C81.8428 107.316 82.0492 107.518 82.2592 107.728C86.5491 112.031 86.5491 112.031 92.2981 113.708C95.6222 113.523 98.9114 112.127 102.043 111.062C102.334 110.966 102.62 110.866 102.918 110.766C110.77 108.048 116.914 104.319 121.18 97.1426C122.849 97.4347 122.849 97.4347 123.563 97.8953C124.175 98.8095 124.052 99.5003 123.979 100.579C122.614 104.298 119.427 107.498 116.281 109.859C121.054 108.725 125.736 106.635 128.416 102.453C129.868 99.813 130.305 97.0257 129.927 94.0494C129.301 92.111 128.006 90.506 126.778 88.8941C127.646 87.8906 128.23 87.2582 129.536 86.8973C131.296 87.3475 132.097 88.468 133.077 89.9252C134.886 93.094 134.753 96.7027 134.826 100.236C135.04 100.256 135.257 100.277 135.477 100.298C135.76 100.329 136.044 100.356 136.334 100.387C136.614 100.414 136.894 100.442 137.185 100.469C137.975 100.579 137.975 100.579 139.025 100.923C140.134 97.5172 140.229 93.8638 138.847 90.5232C138.003 88.9972 136.912 87.6878 135.781 86.3612C135.176 85.4573 135.176 85.4573 135.232 84.6908C135.603 83.921 135.844 83.5223 136.576 83.0515C137.688 83.0034 138.381 83.1821 139.281 83.8385C142.412 86.7117 144.344 90.7122 144.694 94.9018C144.753 98.1255 144.172 101.205 143.574 104.36C143.822 104.333 144.071 104.302 144.326 104.274C144.648 104.236 144.97 104.202 145.303 104.168C145.621 104.13 145.943 104.095 146.272 104.058C146.538 104.044 146.8 104.03 147.073 104.016C147.189 104.13 147.304 104.243 147.423 104.36C148.602 102.48 148.714 100.727 148.865 98.5826C148.917 97.9262 148.97 97.2732 149.022 96.6202C149.043 96.3315 149.064 96.0462 149.085 95.7507C149.173 95.0805 149.173 95.0805 149.522 94.7368C150.884 94.5512 151.566 94.7093 152.805 95.3176C153.812 96.2559 153.903 97.0945 153.963 98.4314C153.711 103.205 151.849 107.299 149.484 111.402C148.966 112.344 148.693 112.973 148.473 113.983C148.756 113.784 149.04 113.588 149.33 113.382C149.704 113.127 150.079 112.87 150.464 112.608C150.831 112.354 151.202 112.096 151.583 111.835C152.686 111.227 153.19 111.058 154.421 111.234C155.055 111.619 155.055 111.619 155.471 112.265C155.66 113.481 155.597 114.114 154.967 115.186C153.501 116.592 151.825 117.812 149.872 118.451C149.841 118.723 149.813 118.994 149.781 119.273C149.148 124.077 147.406 127.971 144.456 131.817C143.903 132.549 143.903 132.549 143.399 133.408C142.444 134.842 141.723 135.818 139.994 136.282C138.616 136.378 137.258 136.368 135.876 136.316C135.369 136.309 134.865 136.302 134.357 136.299C133.035 136.288 131.712 136.254 130.389 136.216C129.035 136.178 127.681 136.165 126.327 136.148C123.678 136.11 121.029 136.051 118.38 135.979C118.37 134.649 118.363 133.316 118.359 131.986C118.356 131.607 118.352 131.233 118.349 130.844C118.349 130.48 118.349 130.112 118.345 129.738C118.345 129.401 118.342 129.068 118.342 128.72C118.384 127.679 118.534 126.693 118.73 125.669C118.499 125.669 118.268 125.669 118.031 125.669C117.828 125.4 117.628 125.129 117.418 124.851C116.582 123.737 116.582 123.737 114.531 123.263C114.647 128.82 114.762 134.378 114.881 140.103C120.847 140.083 126.81 140.055 132.776 140.021C135.547 140.007 138.318 139.993 141.086 139.983C143.504 139.976 145.922 139.966 148.34 139.949C149.617 139.942 150.894 139.935 152.171 139.932C162.49 139.911 171.458 139.069 179.321 131.848C181.389 129.738 182.631 127.291 183.814 124.637C184.059 124.091 184.059 124.091 184.307 123.538C189.752 110.031 187.313 93.7126 181.714 80.6457C180.864 78.7691 179.905 76.9545 178.915 75.1467C178.778 74.8958 178.646 74.6483 178.506 74.3906C176.511 70.7166 174.321 67.235 171.917 63.805C171.668 63.4236 171.416 63.0421 171.161 62.6503C170.612 61.7189 170.612 61.7189 169.817 61.3992C169.702 61.7395 169.586 62.0797 169.467 62.4303C168.946 62.7705 168.946 62.7705 168.418 63.1177C168.593 64.8052 169.079 65.7915 170.059 67.1766C173.418 72.1154 176.364 77.3497 178.782 82.7937C178.918 83.0996 179.055 83.4055 179.195 83.7217C180.86 87.595 181.91 91.5268 182.656 95.6613C182.767 96.2525 182.767 96.2525 182.879 96.8539C183.642 100.995 183.898 105.01 183.919 109.209C183.922 109.783 183.929 110.354 183.94 110.928C184.069 118.152 182.523 124.259 177.515 129.793C177.316 130.016 177.12 130.24 176.917 130.466C172.883 134.728 166.962 136.378 161.209 136.721C156.58 136.886 152.017 136.526 147.423 135.979C148.361 134.182 149.39 132.57 150.66 130.975C152.549 128.549 154.012 125.954 155.471 123.263C155.688 122.874 155.905 122.486 156.129 122.084C159.981 114.901 162.532 106.178 160.426 98.0706C159.53 95.6579 158.225 93.4858 156.871 91.2999C156.437 90.5644 156.003 89.8324 155.569 89.0969C154.481 87.2685 153.361 85.4641 152.224 83.6632C151.688 82.8143 151.164 81.9585 150.646 81.0993C149.113 78.5939 147.489 76.3221 145.464 74.1706C144.487 73.1121 144.274 72.8646 144.274 71.3661C150.362 68.0358 150.362 68.0358 152.584 66.857C153.197 66.527 153.809 66.1971 154.421 65.8672C154.796 65.6678 155.17 65.4685 155.558 65.2657C158.253 63.8016 160.72 62.1691 163.179 60.3544C164.968 59.0347 166.805 57.7802 168.638 56.5189C168.88 56.3505 169.117 56.1855 169.366 56.0171C169.579 55.8693 169.793 55.7215 170.013 55.5703C170.51 55.2369 170.51 55.2369 170.867 54.8692Z" fill="#153B2A"/>
<path d="M93.8853 0.0284407C94.7671 0.0250038 95.6489 0.0250038 96.5342 0.021567C98.3747 0.0181301 100.219 0.0181301 102.063 0.0250038C104.18 0.0318775 106.297 0.0250038 108.41 0.0146932C110.464 0.00438265 112.518 0.00438265 114.572 0.00781951C115.44 0.00781951 116.304 0.00438265 117.172 0.000945789C125.272 -0.0402966 131.347 1.25196 137.442 6.89185C139.045 8.51062 140.518 10.2325 141.988 11.9681C142.859 12.9854 143.741 13.9924 144.622 15.0028C145.707 16.2436 146.792 17.4843 147.873 18.7318C148.153 19.0583 148.153 19.0583 148.443 19.3883C148.804 19.8041 149.161 20.2166 149.521 20.6324C150.417 21.6635 151.33 22.6533 152.32 23.595C154.385 22.4196 156.383 21.1686 158.356 19.8557C160.127 18.6872 161.915 17.5599 163.759 16.5048C164.347 16.1679 164.347 16.1679 164.945 15.8243C165.967 15.3465 165.967 15.3465 167.367 15.3465C167.213 19.3058 166.772 23.1173 166.033 27.0078C165.939 27.5302 165.841 28.0492 165.746 28.5681C165.197 31.5135 164.609 34.4417 163.913 37.3562C163.563 38.834 163.248 40.3188 162.937 41.8035C162.832 42.3122 162.723 42.8174 162.618 43.3226C162.457 44.0821 162.3 44.8382 162.142 45.5978C160.197 55.0148 160.197 55.0148 156.512 58.2042C154.889 59.249 153.251 59.4243 151.344 59.4277C150.994 59.4312 150.994 59.4312 150.634 59.4312C149.84 59.4312 149.049 59.4277 148.254 59.4243C147.975 59.4209 147.698 59.4208 147.411 59.4208C141.928 59.4002 136.445 59.2593 130.962 59.0978C130.052 59.0703 129.139 59.0462 128.226 59.0222C123.834 58.9019 119.464 58.7369 115.1 58.1939C114.793 58.1595 114.485 58.1217 114.166 58.0839C112.245 57.8158 110.912 57.29 109.281 56.2452C109.386 55.1179 109.516 54.6367 110.356 53.8394C112.774 52.1897 115.247 50.7531 117.854 49.4127C118.596 49.0278 119.334 48.6429 120.076 48.2545C120.398 48.0895 120.72 47.9245 121.049 47.7527C121.934 47.2956 121.934 47.2956 122.928 46.622C122.721 45.4878 122.368 44.9035 121.574 44.065C120.44 42.838 119.338 41.5938 118.25 40.3256C118.082 40.1332 117.917 39.9407 117.746 39.7414C116.465 38.2532 115.212 36.7444 113.963 35.2322C113.361 34.5208 112.756 33.8197 112.137 33.1254C109.785 30.479 107.633 27.7502 105.544 24.9044C104.267 23.1723 102.952 21.4745 101.583 19.8145C101.44 19.6357 101.293 19.457 101.142 19.2749C97.8113 15.2881 93.5774 12.3358 88.6367 10.5349C88.2903 10.4009 87.9404 10.2669 87.5835 10.1259C84.9451 9.23923 82.5097 9.02615 79.7385 9.00896C79.4095 9.00552 79.0841 9.00209 78.7447 8.99865C75.3261 9.03989 72.8242 10.559 69.8955 12.1434C69.5561 12.329 69.2131 12.5146 68.8632 12.7036C68.1844 13.0713 67.5021 13.4391 66.8233 13.8103C66.0325 14.2399 65.2417 14.6626 64.4509 15.0888C59.7586 17.6389 55.2062 20.9349 51.4587 24.736C50.8463 25.3134 50.8463 25.3134 50.1465 25.3134C50.1465 25.5403 50.1465 25.7671 50.1465 26.0008C49.8666 26.2208 49.5867 26.4407 49.2962 26.6641C47.7566 27.8808 46.6054 29.3896 45.3842 30.9018C44.436 32.0669 43.4737 33.2217 42.515 34.3764C41.9551 35.0535 41.3987 35.7271 40.8389 36.4042C40.4085 36.9266 39.9746 37.4421 39.5372 37.9576C38.8899 38.7103 38.8899 38.7103 38.5995 39.7483C39.7227 39.9476 40.3175 40.0266 41.3987 39.7483C42.4345 38.8993 43.2393 37.8923 44.0826 36.8647C44.9608 35.8199 45.9056 34.8335 46.8469 33.8403C47.0428 33.6306 47.2388 33.4244 47.4417 33.2079C48.6349 31.95 49.8596 30.7712 51.2137 29.6748C51.9136 29.0802 52.5434 28.4513 53.1837 27.7983C54.6219 26.3789 56.1545 25.176 57.8026 24.0006C58.0895 23.7978 58.3764 23.5916 58.6703 23.3785C71.0012 14.6592 71.0012 14.6592 75.69 14.6592C75.5745 13.6384 75.459 12.6177 75.3401 11.566C83.0941 11.2498 89.3505 12.4046 95.3725 17.4946C98.3957 20.33 100.849 23.6053 103.238 26.9563C104.054 28.087 104.894 29.1902 105.765 30.2797C106.132 30.8124 106.132 30.8124 106.482 31.8435C106.241 31.8607 105.999 31.8778 105.751 31.8985C97.6854 32.5549 90.3337 34.2149 83.0381 37.6861C82.6672 37.8545 82.2963 38.0229 81.9149 38.1982C73.1671 42.295 65.819 49.0622 59.9615 56.5339C59.2302 57.2934 58.8838 57.5065 57.8445 57.6199C57.8445 57.3931 57.8445 57.1663 57.8445 56.9326C57.6556 56.8466 57.4666 56.7642 57.2707 56.6782C56.2455 56.1386 55.3637 55.4788 54.4329 54.7845C54.1565 54.5749 54.1565 54.5749 53.8696 54.3618C53.3272 53.9597 52.7883 53.5541 52.246 53.152C51.3187 52.4578 50.3844 51.7704 49.4467 51.0899C49.1983 50.9043 48.9533 50.7153 48.6979 50.5262C43.3337 46.6392 36.8079 44.2643 30.5515 42.1541C31.0344 41.1471 31.5873 40.2775 32.2591 39.3839C32.5565 38.9853 32.5565 38.9853 32.8609 38.5797C33.0744 38.2979 33.2843 38.0161 33.5048 37.7274C33.7252 37.4352 33.9456 37.1431 34.1731 36.8441C39.9046 29.2761 45.8986 21.8422 53.6666 16.1886C54.4154 15.6387 55.1572 15.0785 55.899 14.5183C62.2954 9.73758 69.2341 6.00514 76.6103 2.88791C76.8657 2.77793 77.1176 2.66795 77.3801 2.55453C78.2093 2.21428 79.0456 1.90497 79.8889 1.59909C80.1933 1.4788 80.4978 1.36194 80.8127 1.24165C85.0781 -0.191518 89.4275 0.0181301 93.8853 0.0284407Z" fill="#062725"/>
<path d="M137.538 83.0085C140.355 83.9674 141.943 86.734 143.224 89.2361C145.334 94.3261 144.571 99.1136 143.574 104.358C143.822 104.331 144.071 104.303 144.326 104.272C144.648 104.238 144.97 104.204 145.303 104.166C145.621 104.131 145.943 104.094 146.272 104.059C146.538 104.046 146.8 104.032 147.073 104.015C147.189 104.128 147.304 104.241 147.423 104.358C148.602 102.478 148.714 100.729 148.868 98.5809C148.917 97.9279 148.97 97.2749 149.022 96.6219C149.054 96.1888 149.054 96.1888 149.085 95.7489C149.173 95.0787 149.173 95.0787 149.522 94.7351C150.884 94.5495 151.566 94.7076 152.801 95.3159C153.812 96.2541 153.903 97.0927 153.963 98.4331C153.711 103.207 151.849 107.3 149.484 111.4C148.966 112.346 148.693 112.971 148.473 113.981C148.896 113.686 148.896 113.686 149.33 113.383C149.704 113.126 150.079 112.871 150.464 112.607C150.831 112.352 151.202 112.098 151.583 111.837C152.686 111.225 153.19 111.06 154.421 111.232C155.055 111.62 155.055 111.62 155.471 112.263C155.66 113.483 155.597 114.116 154.967 115.184C153.501 116.59 151.825 117.81 149.872 118.449C149.827 118.858 149.827 118.858 149.781 119.271C149.148 124.076 147.406 127.973 144.456 131.815C143.903 132.551 143.903 132.551 143.399 133.41C142.444 134.843 141.723 135.819 139.994 136.28C138.616 136.376 137.258 136.366 135.876 136.314C135.369 136.307 134.865 136.304 134.357 136.3C133.035 136.287 131.712 136.252 130.389 136.215C129.035 136.18 127.681 136.163 126.327 136.146C123.678 136.111 121.029 136.053 118.38 135.977C118.37 134.647 118.363 133.317 118.359 131.984C118.356 131.609 118.352 131.231 118.349 130.843C118.349 130.478 118.349 130.114 118.345 129.736C118.345 129.403 118.342 129.066 118.342 128.722C118.384 127.681 118.534 126.694 118.73 125.667C118.499 125.667 118.268 125.667 118.031 125.667C117.558 125.1 117.089 124.529 116.631 123.948C114.696 123 111.109 123.254 109.066 123.893C108.348 124.316 107.785 124.756 107.183 125.323C106.956 125.536 106.728 125.749 106.497 125.966C106.046 126.402 105.602 126.846 105.171 127.299C104.499 127.963 103.814 128.568 103.093 129.179C101.48 130.551 99.9646 132.004 98.4565 133.489C98.1801 133.761 97.9002 134.036 97.6132 134.317C95.9337 135.981 94.3801 137.668 92.9104 139.514C91.7452 140.92 90.4821 142.226 89.2189 143.542C88.2181 144.594 87.2279 145.649 86.2761 146.742C84.9325 148.274 83.4629 149.687 81.9897 151.1C71.3979 146.271 62.5697 141.164 55.7464 131.509C55.6065 131.314 55.4665 131.118 55.3195 130.915C53.4475 128.265 51.4355 125.416 51.1206 122.12C50.9667 120.587 50.6902 119.996 49.4935 118.931C48.6992 118.322 47.8839 117.759 47.0547 117.198C45.9979 116.425 45.2806 115.741 44.5493 114.669C44.3918 113.562 44.3708 112.926 44.9202 111.943C46.0399 111.339 46.8412 111.62 48.0484 111.919C48.8112 112.328 49.4515 112.779 50.1479 113.294C50.2633 113.184 50.3788 113.071 50.4978 112.95C50.2948 112.627 50.0919 112.304 49.8819 111.971C44.2169 102.853 44.2169 102.853 44.8992 99.203C45.4031 98.385 45.9489 97.8282 46.6488 97.1409C48.5558 98.6531 49.1051 100.447 49.8644 102.685C50.1024 103.365 50.3403 104.046 50.5783 104.729C50.6797 105.028 50.7847 105.327 50.8897 105.637C51.1941 106.499 51.1941 106.499 51.8974 107.451C52.5797 107.723 52.5797 107.723 53.3425 107.86C54.0109 107.998 54.0109 107.998 54.6967 108.139C54.3328 106.359 53.8814 104.695 53.2516 102.984C52.1703 99.8422 52.6147 97.2508 53.2971 94.0477C55.617 94.3089 55.617 94.3089 56.7962 95.0787C56.9361 95.9723 57.0201 96.8247 57.0796 97.7217C57.6709 103.877 60.7677 108.916 65.5439 112.95C68.9031 115.556 72.7451 115.861 76.895 115.789C77.5004 115.786 77.5004 115.786 78.1197 115.782C80.4326 115.782 80.4326 115.782 82.6896 115.356C82.4901 115.215 82.2907 115.074 82.0877 114.93C77.5319 111.583 74.4527 106.987 71.9963 101.997C71.8773 101.763 71.7618 101.533 71.6394 101.293C70.8661 99.6463 70.3447 97.9451 70.4427 96.1098C71.1425 95.4224 71.1425 95.4224 72.1048 95.1887C73.4309 95.4637 73.5359 95.6355 74.2707 96.6906C74.8516 97.6323 75.3764 98.5878 75.8838 99.5742C77.4059 102.526 79.2639 104.798 81.6398 107.108C81.8428 107.314 82.0492 107.52 82.2592 107.73C86.5491 112.033 86.5491 112.033 92.2981 113.707C95.6222 113.524 98.9114 112.126 102.043 111.06C102.334 110.964 102.62 110.868 102.918 110.765C110.77 108.046 116.914 104.32 121.18 97.1409C122.849 97.4364 122.849 97.4364 123.563 97.8935C124.175 98.8112 124.052 99.4985 123.979 100.578C122.614 104.3 119.427 107.496 116.281 109.857C121.054 108.723 125.736 106.637 128.416 102.451C129.868 99.8113 130.305 97.024 129.927 94.0477C129.301 92.1093 128.006 90.5043 126.778 88.8924C127.646 87.8923 128.23 87.2599 129.532 86.8956C131.296 87.3458 132.097 88.4697 133.077 89.9234C134.886 93.0922 134.753 96.7044 134.826 100.234C135.04 100.258 135.257 100.279 135.477 100.299C135.76 100.327 136.044 100.358 136.334 100.385C136.614 100.413 136.894 100.44 137.185 100.471C137.975 100.578 137.975 100.578 139.025 100.921C140.134 97.5155 140.229 93.8655 138.847 90.5215C138.003 88.9989 136.912 87.6861 135.781 86.3594C135.176 85.4555 135.176 85.4555 135.232 84.6891C135.806 83.5034 136.152 83.0703 137.538 83.0085Z" fill="#242215"/>
<path d="M38.1853 51.9909C38.5002 51.9875 38.8151 51.984 39.1405 51.9772C41.7019 51.9909 43.5599 52.4858 45.4739 54.2386C46.6916 55.5137 47.5174 56.8781 48.3117 58.435C48.4587 58.7168 48.6056 58.9987 48.7561 59.2874C50.2747 62.2431 51.6113 65.2744 52.9445 68.3091C53.6968 70.0138 54.4666 71.7047 55.2574 73.3922C61.3914 86.5279 61.3913 86.5279 60.996 90.6143C59.3444 91.1402 58.2037 90.6831 56.6746 90.0473C56.4331 89.951 56.1882 89.8548 55.9397 89.7551C55.4289 89.5489 54.918 89.3393 54.4071 89.1296C53.6268 88.81 52.8465 88.4972 52.0662 88.1845C51.5694 87.9817 51.069 87.7824 50.5721 87.5796C50.3412 87.4834 50.1102 87.3906 49.8688 87.2943C48.6721 86.7994 47.6434 86.2805 46.6496 85.4591C46.5586 85.6859 46.4712 85.9162 46.3767 86.1533C45.8588 87.394 45.271 88.5969 44.6761 89.8067C44.5536 90.0576 44.4277 90.3119 44.3017 90.5731C44.0358 91.1093 43.7734 91.6454 43.5074 92.1816C43.112 92.9823 42.7201 93.7866 42.3282 94.5908C40.9601 97.3678 39.5254 100.062 37.9438 102.726C36.5407 105.128 35.2845 107.613 34.0038 110.077C33.528 110.995 33.0521 111.906 32.5727 112.82C31.1066 115.631 29.665 118.449 28.2863 121.306C28.1743 121.536 28.0659 121.763 27.9504 122C24.6962 128.822 23.3246 136.823 25.3051 144.229C25.4275 144.528 25.55 144.827 25.676 145.137C26.0399 146.034 26.0609 146.707 26.0049 147.666C24.5318 147.505 23.7585 146.67 22.8557 145.604C21.1586 143.425 19.696 141.088 18.2404 138.751C17.4391 137.469 16.5993 136.225 15.714 134.998C14.4753 133.273 13.3276 131.506 12.2044 129.705C12.005 129.389 11.809 129.073 11.6026 128.746C10.0525 126.258 8.53385 123.763 7.10971 121.202C6.94176 120.907 6.7773 120.611 6.60584 120.305C2.42441 112.816 -0.801766 104.513 1.53564 95.8109C2.09549 94.1337 2.8478 92.5493 3.61061 90.958C3.96752 90.1779 4.32442 89.4011 4.67783 88.6244C6.81229 84.0018 9.08671 79.448 11.3961 74.9113C11.5081 74.6845 11.6236 74.4611 11.7425 74.2308C12.0644 73.595 12.3864 72.9626 12.7118 72.3302C12.8972 71.9694 13.0827 71.6085 13.2751 71.2339C13.758 70.3369 13.758 70.3369 14.4578 69.3058C14.4578 68.9621 14.4578 68.6219 14.4578 68.2748C14.1814 68.127 13.905 67.9826 13.6181 67.8314C12.5718 67.2815 11.5291 66.735 10.4829 66.1851C10.035 65.948 9.58358 65.7109 9.1357 65.4771C7.84453 64.7966 6.55685 64.1196 5.26918 63.4391C4.68133 63.1298 4.09348 62.8205 3.50563 62.5111C3.15922 62.329 2.81281 62.1468 2.4559 61.9612C2.15498 61.8031 1.85055 61.6416 1.53913 61.4801C0.81132 61.0573 0.811322 61.0573 0.111501 60.37C0.0870069 59.7032 0.0870069 59.7032 0.461411 58.9952C2.39292 58.0466 4.38041 57.5277 6.47637 57.0396C6.84028 56.9537 7.20419 56.8678 7.58209 56.7784C11.5186 55.8849 15.4901 55.17 19.4651 54.462C19.9479 54.3761 19.9479 54.3761 20.4448 54.2867C33.6714 51.929 33.6714 51.929 38.1853 51.9909Z" fill="#062726"/>
<path d="M100.185 54.1818C102.701 55.9621 104.867 58.0139 106.833 60.3682C111.841 66.2418 118.132 69.1803 125.837 69.9055C128.878 70.0773 131.859 70.0327 134.889 69.7233C136.614 69.5893 138.343 69.6202 140.075 69.6477C139.421 74.0057 133.801 78.2536 130.431 80.8588C125.403 84.409 119.71 87.3751 113.93 89.53C113.31 89.7637 112.694 90.018 112.082 90.2689C111.746 90.3961 111.41 90.5267 111.064 90.6573C110.21 91.4065 110.21 91.5921 110.122 92.6678C110.112 93.2143 110.108 93.7607 110.115 94.3072C110.115 97.3694 110.115 97.3695 109.454 98.7614C108.912 99.9368 108.817 100.655 108.866 101.934C108.88 102.425 108.88 102.425 108.894 102.93C108.915 103.298 108.915 103.298 108.933 103.673C107.12 103.776 106.249 103.58 104.734 102.642C103.845 102.384 103.845 102.384 102.984 102.642C102.753 102.982 102.522 103.322 102.284 103.673C102.054 104.013 101.823 104.353 101.585 104.704C100.668 104.876 100.668 104.876 99.8351 104.704C99.1353 104.016 99.1353 104.016 99.0268 102.707C99.0688 101.384 99.2893 100.576 100.185 99.5484C101.998 98.3593 103.079 98.4314 105.434 98.1737C105.549 96.0188 105.665 93.8639 105.784 91.6436C105.322 91.7571 104.86 91.8705 104.384 91.9873C103.88 92.0148 103.373 92.0251 102.869 92.0217C102.589 92.0183 102.309 92.0183 102.022 92.0183C101.588 92.0148 101.588 92.0148 101.147 92.0079C100.853 92.0079 100.559 92.0045 100.255 92.0045C99.5342 92.0011 98.8099 91.9942 98.0856 91.9873C98.1206 92.3791 98.1206 92.3791 98.159 92.7812C98.306 95.5445 97.8301 97.1117 95.9861 99.2047C95.7552 99.4316 95.5242 99.6584 95.2863 99.8921C95.0588 100.775 95.0588 100.775 94.9364 101.611C95.1603 101.703 95.3843 101.796 95.6152 101.889C96.336 102.298 96.336 102.298 96.6859 103.329C94.6424 103.779 93.6697 103.449 91.7872 102.642C90.44 102.669 89.9117 102.758 88.9669 103.714C88.743 103.927 88.519 104.14 88.2881 104.36C87.3258 104.274 87.3258 104.274 86.5385 104.016C86.1676 102.886 86.1606 102.377 86.5805 101.246C87.9172 99.191 89.3798 98.6651 91.7137 98.1427C92.536 97.8987 92.536 97.8987 92.8999 97.1735C92.9944 96.9364 93.0888 96.6993 93.1868 96.4552C93.4178 96.115 93.6487 95.7747 93.8866 95.4242C93.9706 94.4034 93.9706 94.4034 93.9286 93.2968C93.9251 92.9256 93.9181 92.551 93.9111 92.166C93.9041 91.8808 93.8936 91.5955 93.8866 91.3C93.5297 91.1728 93.5297 91.1728 93.1658 91.0456C85.9682 88.3202 80.0232 83.8282 76.741 76.8651C75.8138 74.6209 75.1979 72.4625 75.0195 70.0464C73.9172 67.8777 69.6343 67.0323 67.4509 66.2109C67.164 66.0974 66.8805 65.984 66.5831 65.8672C66.3242 65.7675 66.0652 65.6678 65.7993 65.5647C65.194 65.1798 65.194 65.1798 64.9315 64.4512C64.9035 64.2381 64.8755 64.025 64.8441 63.8051C67.4754 61.9595 70.6841 60.6878 73.8997 60.2204C74.1447 60.1551 74.3896 60.0932 74.6416 60.0245C74.8795 59.3853 75.1104 58.746 75.3204 58.0964C76.5731 55.3229 79.4213 52.8896 82.2486 51.7245C88.68 49.3668 94.422 50.5216 100.185 54.1818Z" fill="#052523"/>
<path d="M37.901 108.141C38.4679 109.175 38.8283 110.196 39.1677 111.32C40.0985 114.073 41.4106 116.588 42.7998 119.139C42.9643 119.441 43.1287 119.743 43.3002 120.056C46.8133 126.463 50.8442 132.247 55.7465 137.698C56.0019 137.99 56.2609 138.278 56.5268 138.577C57.3036 139.444 58.0944 140.292 58.8957 141.134C59.0601 141.31 59.2246 141.485 59.3961 141.667C63.644 146.156 68.3608 148.812 73.9418 151.445C74.6347 151.785 75.3275 152.126 76.0413 152.476C76.0413 160.415 76.0413 168.354 76.0413 176.534C73.515 176.534 71.6044 176.441 69.239 175.826C68.9381 175.747 68.6337 175.672 68.3223 175.589C57.4261 172.706 46.8203 167.777 38.4924 160.23C37.922 159.714 37.3447 159.209 36.7673 158.704C34.7309 156.923 32.8063 155.068 31.0183 153.043C30.2275 152.132 30.2275 152.132 29.3772 151.359C26.9208 148.891 27.0118 146.383 27.0503 143.118C27.0538 142.114 27.0258 141.117 26.9908 140.114C26.7389 130.759 30.1365 123.658 34.241 115.361C35.0913 113.636 35.917 111.897 36.7393 110.155C37.5126 108.522 37.5126 108.522 37.901 108.141Z" fill="#082A29"/>
<path d="M87.5883 4.69107C92.2736 4.66701 96.9554 4.64983 101.641 4.63608C103.817 4.63264 105.994 4.62577 108.167 4.61202C110.27 4.60171 112.369 4.59484 114.468 4.59484C115.27 4.5914 116.071 4.58796 116.869 4.58109C117.992 4.57421 119.119 4.57421 120.242 4.57421C120.567 4.57078 120.896 4.56734 121.236 4.5639C127.174 4.5914 131.103 7.67426 135.176 11.5648C135.446 11.8191 135.446 11.8191 135.722 12.0803C138.182 14.4071 140.404 16.8335 142.524 19.4696C143.042 20.0848 143.56 20.7034 144.078 21.3186C144.935 22.3428 145.775 23.3738 146.587 24.4324C146.741 24.6317 146.895 24.8311 147.056 25.0373C147.35 25.4257 147.643 25.8106 147.934 26.2024C149.554 28.3161 149.554 28.3161 151.965 29.2578C153.253 29.0584 153.847 28.6426 154.859 27.8486C159.586 24.2812 159.586 24.2812 161.419 24.2812C161.108 26.8623 160.667 29.409 160.188 31.9626C160.072 32.595 159.953 33.2273 159.838 33.8597C159.026 38.2898 158.102 42.6787 157.004 47.0504C156.902 47.4559 156.801 47.8649 156.696 48.2842C155.485 52.9824 155.485 52.9824 153.991 54.0547C152.878 54.5943 152.161 54.6527 150.922 54.6527C150.299 54.6562 150.299 54.6562 149.659 54.6596C148.984 54.6562 148.984 54.6562 148.298 54.6493C147.822 54.6493 147.343 54.6493 146.867 54.6493C145.866 54.6493 144.862 54.6459 143.861 54.6424C142.608 54.6321 141.352 54.6321 140.099 54.6355C133.647 54.6424 127.265 54.3915 120.83 53.8382C120.83 53.6114 120.83 53.3845 120.83 53.1508C122.765 52.1438 124.7 51.1437 126.642 50.147C127.345 49.7827 128.045 49.4115 128.745 49.0403C130.83 47.9508 132.457 47.3872 134.826 47.3082C133.297 44.4831 133.297 44.4831 131.205 42.0498C130.459 41.2936 129.809 40.4825 129.14 39.6611C128.024 38.3105 126.88 37.056 125.61 35.8462C124.794 35.0489 124.056 34.1965 123.304 33.3407C122.397 32.3269 121.46 31.3439 120.522 30.361C118.912 28.6632 117.401 26.9104 115.924 25.0992C115.308 24.374 114.675 23.7107 113.986 23.0577C113.702 22.7793 113.422 22.5043 113.132 22.2191C113.132 21.9922 113.132 21.7654 113.132 21.5317C112.932 21.4526 112.733 21.3736 112.526 21.2911C111.536 20.7343 110.962 20.0607 110.224 19.2118C109.255 18.1223 108.3 17.1222 107.162 16.2046C106.823 15.9227 106.483 15.6375 106.134 15.3453C106.134 15.1185 106.134 14.8917 106.134 14.658C105.924 14.5652 105.717 14.4724 105.5 14.3796C104.73 13.9706 104.269 13.5719 103.674 12.9498C100.692 9.88417 100.692 9.88417 96.588 8.94247C95.3108 8.77062 94.6005 8.14855 93.5368 7.44056C92.5221 7.01095 91.4793 6.66726 90.4296 6.32358C90.1567 6.23078 89.8837 6.13799 89.6003 6.04519C88.932 5.81836 88.2601 5.5984 87.5883 5.37844C87.5883 5.15161 87.5883 4.92477 87.5883 4.69107Z" fill="#61BF41"/>
<path d="M109.283 134.261C109.629 134.261 109.975 134.261 110.332 134.261C110.283 135.271 110.231 136.282 110.178 137.289C110.164 137.571 110.15 137.849 110.136 138.138C110.056 139.694 109.947 141.241 109.801 142.795C109.769 143.128 109.738 143.461 109.706 143.808C109.668 144.186 109.668 144.186 109.633 144.571C116.921 144.575 124.21 144.565 131.498 144.544C134.882 144.534 138.266 144.527 141.649 144.53C144.603 144.534 147.556 144.527 150.509 144.513C152.07 144.506 153.63 144.503 155.191 144.51C156.664 144.513 158.141 144.51 159.614 144.499C160.149 144.496 160.688 144.496 161.223 144.499C165.482 144.534 169.082 143.616 172.945 141.856C174.614 141.1 174.614 141.1 175.766 141.478C174.107 143.265 172.613 144.052 170.335 144.898C166.486 146.537 162.7 149.73 160.37 153.164C160.139 153.164 159.908 153.164 159.67 153.164C159.554 153.504 159.439 153.844 159.32 154.195C158.76 154.738 158.76 154.738 158.053 155.312C157.112 156.092 156.23 156.882 155.383 157.762C147.521 165.519 136.537 165.392 126.071 165.849C125.407 165.88 124.742 165.911 124.077 165.942C118.559 166.193 113.055 166.272 107.533 166.224C107.533 166.45 107.533 166.677 107.533 166.911C107.764 166.911 107.995 166.911 108.233 166.911C108.065 168.588 107.722 169.616 106.833 171.035C106.585 172.132 106.585 172.132 106.483 173.097C104.804 172.809 104.079 171.743 103.051 170.499C102.676 170.059 102.302 169.619 101.928 169.179C101.746 168.966 101.567 168.753 101.382 168.533C99.9086 166.784 98.5054 165.223 96.6859 163.818C96.6859 163.591 96.6859 163.364 96.6859 163.13C96.4934 163.048 96.301 162.969 96.1015 162.883C95.0868 162.337 94.3065 161.656 93.4492 160.896C93.1378 160.625 92.8264 160.35 92.5044 160.068C91.7871 159.35 91.7871 159.35 91.7871 158.663C90.5764 159.003 90.5764 159.003 89.3378 159.35C88.9878 159.006 88.9878 159.006 88.8829 158.061C89.0123 156.683 89.3972 156.233 90.321 155.205C90.6079 154.879 90.8949 154.552 91.1923 154.215C91.3462 154.043 91.5002 153.872 91.6612 153.696C92.3085 152.971 92.9418 152.236 93.5752 151.497C93.9006 151.115 94.226 150.737 94.5549 150.359C95.5872 149.166 96.6019 147.96 97.6026 146.74C98.8728 145.211 100.192 143.736 101.546 142.279C102.204 141.568 102.834 140.839 103.467 140.103C104.772 138.619 106.259 137.34 107.757 136.048C108.632 135.306 108.632 135.306 109.283 134.261Z" fill="#63C744"/>
<path d="M42.0999 57.9624C42.7052 58.4608 42.7052 58.4608 43.1496 58.9935C43.1496 59.3337 43.1496 59.674 43.1496 60.0245C42.6877 60.0245 42.2258 60.0245 41.75 60.0245C41.8584 60.2411 41.9634 60.461 42.0754 60.6844C42.5722 62.0935 42.7017 63.4648 42.8417 64.9427C42.8732 65.2245 42.9047 65.5063 42.9362 65.795C43.4155 70.4932 42.9257 73.9163 40.5673 78.0681C38.9822 80.955 37.509 83.8661 36.1304 86.8527C33.9959 91.4581 31.781 96.0222 29.3211 100.47C24.7373 108.752 21.3397 117.461 19.3557 126.7C18.4354 125.61 17.9385 124.531 17.4102 123.222C16.5459 121.163 15.5347 119.214 14.4359 117.269C14.219 116.887 14.219 116.887 13.9985 116.496C13.0783 114.891 12.06 113.409 10.9578 111.921C10.7059 111.502 10.4574 111.079 10.216 110.653C9.60716 109.546 9.60716 109.546 8.94583 108.721C8.50845 108.141 8.50845 108.141 8.50845 107.453C7.93109 107.567 7.35374 107.68 6.75889 107.797C5.48172 105.79 5.66367 103.253 5.62168 100.964C5.61119 100.521 5.60419 100.074 5.59369 99.6172C5.75815 95.981 7.65816 92.7125 9.22926 89.4956C9.4742 88.9904 9.71914 88.4818 9.96407 87.9765C10.4854 86.9008 11.0068 85.8251 11.5317 84.7493C12.8193 82.1064 14.0965 79.4566 15.3737 76.8067C15.7831 75.9544 16.196 75.1055 16.6089 74.2532C16.8643 73.7273 17.1162 73.198 17.3717 72.6722C17.4872 72.4351 17.6026 72.2014 17.7181 71.9573C18.0365 71.3043 18.3479 70.6479 18.6559 69.9914C18.7573 69.7749 18.8623 69.5618 18.9673 69.3384C19.5026 68.1871 19.7056 67.5066 19.7056 66.2109C15.4297 63.7879 15.4297 63.7879 10.9578 61.743C10.9578 61.5161 10.9578 61.2893 10.9578 61.0556C16.4409 59.9867 21.938 58.9969 27.4456 58.0484C27.9075 57.9693 27.9075 57.9693 28.3764 57.8868C29.2616 57.7356 30.1504 57.5809 31.0357 57.4297C31.2981 57.385 31.5641 57.3404 31.8335 57.2922C39.1151 56.055 39.1151 56.055 42.0999 57.9624Z" fill="#66C242"/>
<path d="M46.6488 97.1426C48.5558 98.6514 49.1051 100.445 49.8644 102.683C50.1024 103.367 50.3403 104.047 50.5783 104.728C50.6797 105.027 50.7847 105.329 50.8897 105.639C51.1941 106.498 51.1941 106.498 51.8974 107.453C52.5797 107.725 52.5797 107.725 53.339 107.862C53.7869 107.955 54.2348 108.044 54.6967 108.141C54.8122 107.914 54.9276 107.687 55.0466 107.453C55.2076 107.732 55.3685 108.01 55.533 108.295C55.7464 108.663 55.9634 109.031 56.1838 109.409C56.3938 109.77 56.6072 110.134 56.8242 110.509C57.7864 112.041 58.8221 113.303 60.2288 114.457C61.177 115.241 62.0098 116.038 62.8321 116.946C66.9086 121.015 74.1867 120.926 79.5614 121.008C79.9917 121.022 80.4221 121.039 80.863 121.056C83.3159 121.084 84.845 120.97 86.6435 119.252C87.3994 118.671 87.8682 118.664 88.813 118.688C90.748 119.008 92.4766 119.829 94.2471 120.63C96.1891 121.506 98.1101 122.077 100.185 122.575C100.783 122.751 101.382 122.929 101.977 123.112C103.373 123.531 104.765 123.847 106.2 124.112C106.833 124.294 106.833 124.294 107.533 124.981C107.068 125.449 106.602 125.913 106.134 126.377C105.745 126.765 105.745 126.765 105.346 127.164C104.601 127.868 103.852 128.535 103.072 129.195C101.466 130.563 99.9576 132.013 98.4565 133.487C98.1801 133.762 97.9002 134.034 97.6132 134.316C95.9337 135.983 94.3801 137.667 92.9104 139.516C91.7452 140.918 90.4821 142.224 89.2189 143.544C88.2181 144.592 87.2279 145.647 86.2761 146.74C84.9325 148.276 83.4629 149.685 81.9897 151.101C71.3979 146.273 62.5697 141.162 55.7464 131.511C55.6065 131.315 55.4665 131.116 55.3195 130.913C53.4475 128.267 51.4355 125.414 51.1206 122.118C50.9667 120.585 50.6902 119.994 49.4935 118.929C48.6992 118.324 47.8839 117.76 47.0547 117.2C45.9979 116.427 45.2806 115.739 44.5493 114.671C44.3918 113.564 44.3708 112.928 44.9202 111.942C46.0399 111.34 46.8412 111.619 48.0484 111.921C48.8112 112.327 49.4515 112.78 50.1479 113.296C50.2633 113.182 50.3788 113.069 50.4978 112.952C50.2948 112.629 50.0919 112.303 49.8819 111.969C44.2169 102.855 44.2169 102.855 44.8992 99.2047C45.4031 98.3833 45.9489 97.83 46.6488 97.1426Z" fill="#A9885F"/>
<path d="M129.534 86.8965C131.294 87.3468 132.099 88.4672 133.075 89.9244C134.901 93.131 135.055 97.1315 134.209 100.668C133.88 101.586 133.505 102.452 133.075 103.328C132.97 103.576 132.865 103.82 132.756 104.074C130.202 109.707 123.942 112.807 118.428 115.079C116.283 115.883 114.022 116.22 111.73 116.045C111.503 115.931 111.272 115.818 111.03 115.701C111.03 114.794 111.03 113.886 111.03 112.951C110.806 113.079 110.579 113.202 110.348 113.329C107.094 115.038 103.71 116.055 100.183 117.076C107.416 119.083 114.407 120.389 121.878 121.2C121.878 121.427 121.878 121.654 121.878 121.887C121.514 121.856 121.146 121.822 120.768 121.788C120.286 121.75 119.803 121.712 119.32 121.674C119.078 121.65 118.837 121.629 118.589 121.605C117.241 121.502 116.741 121.471 115.579 122.231C115.579 122.458 115.579 122.685 115.579 122.918C115.128 122.898 114.673 122.877 114.204 122.853C112.196 122.853 110.341 123.338 108.606 124.341C106.023 125.4 101.964 123.475 99.4029 122.654C98.3462 122.317 97.293 122.008 96.2257 121.715C94.966 121.355 93.8393 120.863 92.6601 120.299C90.8651 119.485 89.2345 118.894 87.2365 119.138C86.6102 119.585 86.6102 119.585 86.0328 120.162C84.0838 121.678 82.0543 121.454 79.6715 121.372C79.2341 121.365 78.7967 121.355 78.3453 121.348C71.9839 121.186 66.1404 120.571 61.4971 115.897C61.1787 115.577 60.8603 115.258 60.5348 114.931C60.2234 114.618 59.9155 114.306 59.5936 113.982C59.2822 113.677 58.9672 113.371 58.6453 113.055C56.0245 110.47 54.6773 107.614 53.5366 104.187C53.3967 103.778 53.3967 103.778 53.2532 103.359C52.4239 100.754 52.3959 98.4203 52.9453 95.7465C53.0433 95.2619 53.0433 95.2619 53.1447 94.767C53.1937 94.5298 53.2462 94.2927 53.2952 94.0487C55.6151 94.3064 55.6151 94.3064 56.7943 95.0797C56.9343 95.9733 57.0217 96.8256 57.0812 97.7227C57.6691 103.878 60.7658 108.917 65.5421 112.951C68.9047 115.557 72.7432 115.862 76.8932 115.787C77.502 115.783 77.502 115.783 78.1214 115.783C80.4343 115.783 80.4343 115.783 82.6877 115.357C82.4917 115.216 82.2923 115.075 82.0858 114.928C77.5335 111.584 74.4508 106.988 71.9944 101.998C71.8789 101.764 71.76 101.531 71.641 101.294C70.8642 99.6473 70.3463 97.9461 70.4408 96.1108C71.1406 95.4234 71.1406 95.4234 72.1064 95.1863C73.4291 95.4646 73.534 95.6365 74.2688 96.6916C74.8532 97.6333 75.378 98.5888 75.8819 99.5717C77.404 102.527 79.2656 104.799 81.6379 107.109C81.8444 107.315 82.0473 107.518 82.2573 107.731C86.5507 112.034 86.5507 112.034 92.2962 113.708C95.6239 113.525 98.913 112.127 102.045 111.061C102.332 110.965 102.619 110.865 102.916 110.766C110.768 108.047 116.916 104.318 121.178 97.1418C122.85 97.434 122.85 97.434 123.564 97.8945C124.173 98.8087 124.054 99.4995 123.977 100.579C122.616 104.301 119.425 107.497 116.279 109.858C121.055 108.724 125.737 106.634 128.414 102.452C129.87 99.8123 130.304 97.025 129.926 94.0487C129.303 92.1103 128.008 90.5053 126.776 88.8934C127.644 87.8932 128.229 87.2574 129.534 86.8965Z" fill="#1F1F14"/>
<path d="M41.4001 129.449C42.8522 129.985 43.664 131.03 44.6158 132.178C44.8677 132.474 44.8677 132.474 45.1231 132.779C45.634 133.384 46.1414 133.996 46.6487 134.604C46.9462 134.958 47.2436 135.312 47.5375 135.666C48.4683 136.783 49.3955 137.897 50.3193 139.017C51.4215 140.337 52.6182 141.53 53.8744 142.705C54.3923 143.2 54.8961 143.712 55.3965 144.228C55.3965 144.454 55.3965 144.681 55.3965 144.915C55.5995 145.008 55.8059 145.101 56.0159 145.193C56.8066 145.606 57.4295 146.063 58.1083 146.633C58.3218 146.812 58.5387 146.987 58.7592 147.17C59.2455 147.665 59.2455 147.665 59.2455 148.352C59.431 148.431 59.6199 148.51 59.8124 148.592C60.9006 149.177 61.8244 149.933 62.7866 150.692C64.8511 152.287 67.0065 153.892 69.6449 154.366C69.9073 154.421 70.1697 154.48 70.4427 154.538C70.8591 155.353 70.8346 155.844 70.8311 156.755C70.8311 157.229 70.8311 157.229 70.8311 157.714C70.8311 158.058 70.8276 158.398 70.8276 158.752C70.8276 159.102 70.8241 159.45 70.8241 159.81C70.8241 160.931 70.8206 162.051 70.8136 163.172C70.8136 163.931 70.8101 164.691 70.8101 165.45C70.8066 167.31 70.7996 169.172 70.7926 171.035C70.2922 170.929 69.7953 170.819 69.295 170.712C69.0185 170.65 68.7386 170.592 68.4517 170.53C59.1056 168.43 50.7182 164.261 43.4821 158.178C42.8067 157.638 42.1139 157.15 41.4001 156.669C41.0537 156.418 40.7073 156.171 40.3504 155.913C40.3504 155.686 40.3504 155.459 40.3504 155.226C39.829 155.054 39.829 155.054 39.3006 154.882C39.2796 154.614 39.2586 154.342 39.2341 154.064C39.1397 153.768 39.0487 153.469 38.9507 153.164C38.3734 152.919 37.789 152.693 37.2012 152.476C36.7253 151.909 36.2599 151.339 35.8015 150.758C35.5706 150.655 35.3431 150.548 35.1052 150.442C33.87 149.789 33.5481 148.537 33.0022 147.321C32.8518 147.036 32.6978 146.754 32.5438 146.462C31.97 144.417 32.6943 142.255 33.5026 140.351C34.4229 138.787 35.686 137.557 36.9702 136.275C37.88 135.312 38.5763 134.33 39.3006 133.23C39.5456 133.01 39.7905 132.79 40.0424 132.563C40.9207 131.618 41.1097 130.68 41.4001 129.449Z" fill="#365C29"/>
<path d="M75.3415 11.5648C77.8818 11.5648 80.4222 11.5648 83.0395 11.5648C83.0395 11.6782 83.0395 11.7916 83.0395 11.9084C81.192 11.9084 79.3444 11.9084 77.4409 11.9084C77.4129 13.3691 77.3919 14.8298 77.3744 16.2904C77.3674 16.6994 77.3569 17.105 77.35 17.5277C77.3255 20.2875 77.7104 22.6658 78.4907 25.3122C78.7356 26.3398 78.963 27.3743 79.1905 28.4054C79.4214 28.292 79.6524 28.1785 79.8903 28.0617C80.7126 28.2713 81.5314 28.4982 82.3397 28.7491C82.3397 29.0893 82.3397 29.4296 82.3397 29.7801C83.0325 29.7801 83.7253 29.7801 84.4391 29.7801C83.4874 30.4022 82.5286 30.8937 81.5034 31.3817C74.1938 34.8736 68.0668 39.9051 62.3948 45.5897C61.9714 45.9952 61.9714 45.9952 61.541 46.4077C60.2603 47.6965 59.0566 49.0472 57.8459 50.4013C56.7927 49.9133 55.8549 49.3427 54.8997 48.6897C51.5895 46.4627 48.3284 44.3937 44.6963 42.7096C43.2092 42.0188 41.7745 41.2421 40.3504 40.4344C41.2637 39.5339 42.1804 38.6369 43.1042 37.7433C45.4066 35.5128 45.4066 35.5128 47.5656 33.1517C48.7133 31.8319 49.9974 30.7012 51.3306 29.5636C52.0479 28.9243 52.7162 28.2782 53.3881 27.5943C54.7457 26.2539 56.2258 25.1335 57.7795 24.0234C58.0699 23.8172 58.3568 23.611 58.6542 23.3979C70.9816 14.6579 70.9816 14.6579 75.6914 14.6579C75.5164 13.1251 75.5164 13.1251 75.3415 11.5648Z" fill="#3A6028"/>
<path d="M137.538 83.0085C140.355 83.9674 141.943 86.734 143.224 89.2361C145.334 94.3261 144.571 99.1136 143.574 104.358C143.819 104.331 144.064 104.303 144.316 104.272C144.634 104.238 144.953 104.204 145.278 104.166C145.596 104.131 145.911 104.094 146.24 104.059C147.073 104.015 147.073 104.015 147.773 104.358C147.252 106.135 146.44 107.61 145.498 109.194C144.424 110.991 144.424 110.991 143.535 112.878C142.269 115.978 138.448 117.521 135.526 118.793C131.415 120.426 127.562 120.921 123.146 120.921C122.415 120.921 121.684 120.927 120.952 120.934C116.071 120.955 111.41 120.264 106.658 119.161C106.27 119.075 105.878 118.986 105.479 118.896C103.495 118.446 101.669 117.944 99.8351 117.075C100.748 116.48 101.322 116.215 102.344 115.92C102.627 115.834 102.911 115.751 103.205 115.662C103.793 115.49 104.384 115.318 104.975 115.147C106.879 114.579 108.562 113.847 110.332 112.95C110.563 112.95 110.794 112.95 111.032 112.95C111.032 113.858 111.032 114.765 111.032 115.7C117.558 116.078 124.094 112.789 128.937 108.696C131.184 106.658 132.293 104.657 133.399 101.863C133.72 101.062 134.07 100.31 134.476 99.5467C134.592 99.7735 134.707 100 134.826 100.234C135.537 100.385 135.537 100.385 136.355 100.43C137.342 100.506 138.077 100.612 139.025 100.921C140.134 97.5155 140.229 93.8655 138.847 90.5215C138.003 88.9989 136.912 87.6861 135.781 86.3594C135.176 85.4555 135.176 85.4555 135.232 84.6891C135.806 83.5034 136.152 83.0703 137.538 83.0085Z" fill="#B59369"/>
<path d="M43.1496 59.3372C44.0628 60.4335 44.6367 61.5539 45.2245 62.8462C45.3645 63.1521 45.3645 63.1521 45.508 63.4683C45.8089 64.1316 46.1098 64.7949 46.4072 65.4582C46.6172 65.9153 46.8236 66.3724 47.0301 66.8295C48.2058 69.4243 49.315 72.0295 50.3577 74.6759C51.4354 77.2226 52.7371 79.6903 54.0773 82.1132C54.3467 82.7078 54.3467 82.7078 54.3467 83.7389C53.5244 83.4192 52.7056 83.0962 51.8903 82.7628C51.0785 82.4329 50.2632 82.1098 49.448 81.7833C49.1715 81.6699 48.8916 81.5565 48.6047 81.4362C48.3352 81.3296 48.0658 81.2231 47.7859 81.1131C47.5409 81.0169 47.2995 80.9172 47.0476 80.8175C46.0678 80.5941 45.494 80.6526 44.5492 80.9894C43.9474 81.6871 43.9474 81.6871 43.5065 82.5978C43.3245 82.9347 43.1426 83.2715 42.9571 83.622C42.6737 84.1685 42.6737 84.1685 42.3833 84.7287C42.1873 85.0999 41.9879 85.4711 41.7814 85.856C41.3755 86.619 40.9731 87.3819 40.5742 88.1449C40.0598 89.1244 39.5385 90.0971 39.0136 91.0697C37.516 93.8295 36.0569 96.6065 34.6712 99.4213C34.1604 100.377 33.6215 101.281 33.0476 102.198C31.9244 104.023 30.9902 105.907 30.0699 107.838C29.734 108.543 29.3981 109.244 29.0587 109.945C28.8137 110.454 28.8137 110.454 28.5653 110.973C27.9564 112.224 27.3231 113.457 26.6828 114.691C23.5966 120.723 21.0947 126.112 20.4054 132.886C20.2899 133.113 20.1744 133.34 20.0555 133.573C19.709 133.46 19.3626 133.347 19.0057 133.23C18.7538 132.687 18.5054 132.14 18.2814 131.583C17.3437 129.398 16.1155 127.353 14.6983 125.431C12.228 122.036 10.307 118.334 8.5504 114.54C8.35795 114.124 8.35795 114.124 8.162 113.701C5.74762 108.361 5.74762 108.361 6.40895 106.422C6.52442 106.762 6.63989 107.103 6.75886 107.453C7.02479 107.426 7.29422 107.398 7.57065 107.371C8.50841 107.453 8.50841 107.453 9.06477 108.013C9.29921 108.402 9.29921 108.402 9.54065 108.794C9.7156 109.079 9.89056 109.361 10.0725 109.653C10.251 109.948 10.4259 110.244 10.6079 110.546C10.9508 111.083 11.2902 111.622 11.6331 112.158C14.4149 116.65 16.8538 121.201 19.0057 126.012C19.1282 125.583 19.1282 125.583 19.2507 125.143C22.2949 114.403 26.5428 104.7 31.8474 94.8228C33.3591 92.0045 34.7587 89.1451 36.1234 86.2547C36.7742 84.8765 37.4355 83.5017 38.0969 82.127C38.2263 81.8589 38.3558 81.5908 38.4888 81.3125C39.1256 79.9893 39.7729 78.6798 40.4587 77.3807C40.5882 77.1332 40.7177 76.8858 40.8506 76.6314C41.0921 76.1743 41.337 75.7172 41.5855 75.2636C43.3035 72.002 42.8696 68.4655 42.4707 64.9427C42.4427 64.6574 42.4113 64.3756 42.3798 64.08C42.2293 62.7122 42.0578 61.3683 41.7499 60.0245C42.2118 60.0245 42.6737 60.0245 43.1496 60.0245C43.1496 59.7977 43.1496 59.5709 43.1496 59.3372Z" fill="#2E831A"/>
<path d="M98.0856 58.6497C99.0128 59.337 99.9086 60.045 100.797 60.7805C101.585 61.4301 101.585 61.4301 102.561 61.9525C102.816 62.1106 103.072 62.2687 103.334 62.4302C103.334 62.657 103.334 62.8839 103.334 63.1176C102.813 63.1623 102.813 63.1623 102.284 63.2069C98.8799 63.5438 96.5565 64.1624 94.1281 66.6197C92.2211 68.974 91.8642 71.8816 92.1371 74.8029C92.7004 78.9203 95.2023 81.5838 98.4355 84.0824C100.706 85.66 103.446 86.0002 106.134 86.4882C106.134 86.8285 106.134 87.1687 106.134 87.5193C98.5055 87.8217 92.5325 87.0141 86.4965 81.9791C81.6818 77.494 78.5816 72.215 78.3786 65.6196C78.3681 65.2106 78.3681 65.2106 78.3576 64.7948C78.3506 64.5336 78.3401 64.2758 78.3331 64.0077C78.3261 61.5985 79.0924 59.8148 80.786 58.0688C86.668 53.7109 92.3365 54.9379 98.0856 58.6497Z" fill="#568437"/>
<path d="M173.666 143.54C173.208 144.544 172.725 145.228 171.913 145.98C171.707 146.176 171.5 146.372 171.287 146.572C171.07 146.778 170.85 146.981 170.626 147.19C167.361 150.297 167.361 150.297 165.268 154.194C164.691 154.772 164.107 155.342 163.519 155.913C162.952 156.617 162.399 157.322 161.857 158.04C158.078 162.924 153.221 167.969 146.737 169.09C140.456 169.898 134.102 169.753 127.783 169.729C126.642 169.722 125.501 169.726 124.36 169.726C123.248 169.726 122.132 169.722 121.015 169.719C120.49 169.719 119.969 169.719 119.444 169.719C118.709 169.715 117.975 169.715 117.24 169.712C116.823 169.708 116.41 169.708 115.984 169.705C113.979 169.643 111.981 169.468 109.983 169.317C110.098 173.513 110.214 177.71 110.333 182.033C108.758 180.706 107.477 179.586 106.134 178.101C104.003 175.785 101.76 173.582 99.5063 171.379C99.3278 171.204 99.1529 171.032 98.9674 170.853C98.1486 170.049 97.3298 169.248 96.5076 168.447C95.8987 167.856 95.2934 167.261 94.688 166.667C94.2191 166.203 93.7398 165.746 93.2534 165.299C92.837 164.849 92.837 164.849 92.837 164.161C92.6061 164.161 92.3751 164.161 92.1372 164.161C91.5563 163.471 91.5563 163.471 90.9125 162.55C90.699 162.25 90.4856 161.951 90.2687 161.646C89.7228 160.783 89.3379 159.958 88.988 159.006C89.9887 158.79 90.7795 158.625 91.7873 158.662C92.683 159.35 92.683 159.35 93.5368 160.381C93.9182 160.773 94.3066 161.158 94.695 161.543C94.905 161.749 95.1149 161.955 95.3284 162.168C95.9722 162.773 96.637 163.34 97.3193 163.904C100.136 166.296 102.481 169.152 104.765 172.025C105.399 172.836 105.399 172.836 106.484 173.097C106.456 172.805 106.428 172.516 106.396 172.217C106.494 170.894 106.851 170.296 107.547 169.207C107.978 168.464 108.128 167.753 108.233 166.911C108.002 166.911 107.771 166.911 107.533 166.911C107.533 166.684 107.533 166.457 107.533 166.224C107.827 166.213 108.125 166.199 108.426 166.189C111.242 166.079 114.056 165.969 116.869 165.856C118.317 165.797 119.763 165.739 121.208 165.684C139.844 165.471 139.844 165.471 155.667 157.016C156.692 156.102 157.742 155.219 158.795 154.335C159.362 153.868 159.362 153.868 159.67 153.163C159.901 153.163 160.132 153.163 160.37 153.163C160.457 152.968 160.545 152.768 160.632 152.565C162.788 148.73 169.086 143.54 173.666 143.54Z" fill="#2A8A1D"/>
<path d="M46.6488 97.1426C48.5243 98.6342 49.0142 100.318 49.7315 102.535C50.6447 105.192 51.4985 107.14 53.4545 109.203C54.2803 110.199 54.2698 111.007 54.3468 112.265C54.5287 112.443 54.7072 112.619 54.8927 112.801C55.3965 113.296 55.3965 113.296 55.4175 114.306C55.4105 114.653 55.4035 115.001 55.3965 115.358C56.6667 118.527 60.8761 119.826 63.7944 121.201C64.4802 121.537 65.166 121.871 65.8519 122.211C66.1318 122.349 66.4117 122.486 66.6986 122.627C66.9926 122.771 66.9926 122.771 67.2935 122.919C67.2935 123.373 67.2935 123.826 67.2935 124.294C65.9778 125.156 64.9071 125.112 63.378 125.112C63.1121 125.112 62.8426 125.112 62.5697 125.112C60.5472 125.074 59.1896 124.741 57.496 123.606C57.7094 128.404 62.1463 132.446 65.5229 135.529C68.5986 138.289 71.6044 140.66 75.3414 142.509C75.7438 142.715 76.1462 142.922 76.5626 143.135C79.7468 144.75 82.6091 145.97 86.1887 146.29C85.6323 147.63 84.7435 148.469 83.6973 149.469C83.3754 149.775 83.057 150.081 82.7315 150.397C82.3641 150.747 82.3641 150.747 81.9897 151.101C71.3979 146.273 62.5697 141.162 55.7464 131.511C55.6065 131.315 55.4665 131.116 55.3195 130.913C53.4475 128.267 51.4355 125.414 51.1206 122.118C50.9667 120.585 50.6902 119.994 49.4935 118.929C48.6992 118.324 47.8839 117.76 47.0547 117.2C45.9979 116.427 45.2806 115.739 44.5493 114.671C44.3918 113.564 44.3708 112.928 44.9202 111.942C46.0399 111.34 46.8412 111.619 48.0484 111.921C48.8112 112.327 49.4515 112.78 50.1479 113.296C50.2633 113.182 50.3788 113.069 50.4978 112.952C50.2948 112.629 50.0919 112.303 49.8819 111.969C44.2169 102.855 44.2169 102.855 44.8992 99.2047C45.4031 98.3833 45.9489 97.83 46.6488 97.1426Z" fill="#232218"/>
<path d="M100.587 125.063C101.329 125.579 102.008 126.056 102.634 126.699C102.634 127.039 102.634 127.38 102.634 127.73C102.403 127.73 102.172 127.73 101.934 127.73C101.819 128.07 101.703 128.411 101.584 128.761C101.794 128.648 102.004 128.534 102.217 128.418C102.984 128.074 102.984 128.074 104.033 128.074C103.663 128.435 103.663 128.435 103.281 128.802C102.343 129.713 101.406 130.624 100.468 131.538C100.069 131.93 99.6631 132.322 99.2607 132.71C96.9618 134.937 94.7784 137.171 92.7874 139.673C91.9581 140.66 91.0798 141.405 90.0371 142.165C90.0371 141.938 90.0371 141.711 90.0371 141.478C89.5297 141.495 89.5297 141.495 89.0118 141.515C87.4267 141.512 85.9396 141.223 84.3965 140.897C84.1061 140.838 83.8157 140.776 83.5182 140.715C81.0339 140.175 78.728 139.391 76.3906 138.384C76.2191 135.913 76.2191 135.913 77.0239 134.604C77.7902 133.917 77.7902 133.917 78.8399 133.917C78.8399 133.69 78.8399 133.463 78.8399 133.229C80.572 133.229 82.304 133.229 84.0886 133.229C84.0886 133.002 84.0886 132.775 84.0886 132.542C83.6512 132.528 83.2138 132.518 82.7659 132.504C79.3123 132.384 75.9007 132.147 72.4751 131.703C72.1496 131.662 71.8242 131.621 71.4918 131.576C65.4838 130.765 65.4838 130.765 64.4936 129.792C64.5461 128.644 64.7385 127.902 65.3474 126.916C66.9255 125.929 68.6855 126.242 70.4876 126.438C72.573 126.661 74.634 126.764 76.73 126.782C77.2128 126.785 77.2128 126.785 77.7062 126.788C78.3815 126.795 79.0604 126.799 79.7392 126.802C80.418 126.806 81.0969 126.813 81.7757 126.823C86.3735 126.892 90.499 126.503 94.9358 125.324C99.1627 124.255 99.1627 124.255 100.587 125.063Z" fill="#A68259"/>
<path d="M109.283 134.261C109.629 134.261 109.976 134.261 110.332 134.261C110.283 135.271 110.231 136.282 110.178 137.289C110.164 137.571 110.15 137.849 110.136 138.138C110.056 139.694 109.948 141.241 109.801 142.795C109.769 143.128 109.738 143.461 109.706 143.808C109.668 144.186 109.668 144.186 109.633 144.571C116.921 144.575 124.21 144.565 131.499 144.544C134.882 144.534 138.266 144.527 141.649 144.53C144.603 144.534 147.556 144.527 150.509 144.513C152.07 144.506 153.63 144.503 155.191 144.51C156.664 144.513 158.141 144.51 159.614 144.499C160.149 144.496 160.688 144.496 161.223 144.499C165.482 144.534 169.082 143.616 172.945 141.856C174.615 141.1 174.615 141.1 175.766 141.478C174.328 143.028 173.25 143.829 171.217 144.571C170.738 144.798 170.262 145.025 169.786 145.252C168.043 146.015 166.378 146.297 164.499 146.52C164.163 146.561 163.827 146.606 163.48 146.651C162.774 146.74 162.067 146.826 161.356 146.912C160.3 147.039 159.243 147.177 158.186 147.311C157.49 147.4 156.794 147.486 156.101 147.572C155.796 147.61 155.492 147.651 155.177 147.689C148.749 148.452 142.255 148.4 135.792 148.386C134.973 148.386 134.151 148.383 133.329 148.383C131.194 148.383 129.06 148.379 126.925 148.376C124.738 148.373 122.548 148.369 120.357 148.369C116.085 148.366 111.809 148.359 107.533 148.352C107.523 147.228 107.516 146.104 107.512 144.98C107.509 144.661 107.505 144.341 107.502 144.011C107.502 143.705 107.502 143.399 107.498 143.083C107.498 142.801 107.495 142.516 107.495 142.227C107.533 141.478 107.533 141.478 107.883 140.447C107.456 140.787 107.036 141.131 106.616 141.478C106.378 141.671 106.144 141.86 105.903 142.059C105 142.935 104.282 143.87 103.534 144.874C102.662 146.029 101.728 147.135 100.797 148.245C99.3557 149.974 97.9456 151.72 96.5775 153.507C92.7459 158.422 92.7459 158.422 90.0376 159.35C89.6912 159.236 89.3448 159.123 88.9879 159.006C88.8759 157.786 88.8724 157.126 89.5408 156.071C89.7997 155.786 90.0551 155.501 90.3211 155.205C90.608 154.879 90.8949 154.552 91.1923 154.215C91.3463 154.043 91.5003 153.872 91.6612 153.696C92.3085 152.971 92.9419 152.236 93.5752 151.497C93.9006 151.115 94.2261 150.737 94.555 150.359C95.5872 149.166 96.6019 147.96 97.6027 146.74C98.8729 145.211 100.192 143.736 101.546 142.279C102.204 141.568 102.834 140.839 103.467 140.103C104.772 138.619 106.259 137.34 107.757 136.048C108.632 135.306 108.632 135.306 109.283 134.261Z" fill="white"/>
<path d="M87.5883 4.69107C92.2736 4.66701 96.9554 4.64983 101.641 4.63608C103.817 4.63264 105.994 4.62577 108.167 4.61202C110.27 4.60171 112.369 4.59484 114.468 4.59484C115.27 4.5914 116.071 4.58796 116.869 4.58109C117.992 4.57421 119.119 4.57421 120.242 4.57421C120.567 4.57078 120.896 4.56734 121.236 4.5639C127.174 4.5914 131.103 7.67426 135.176 11.5648C135.446 11.8191 135.446 11.8191 135.722 12.0803C138.182 14.4071 140.404 16.8335 142.524 19.4696C143.042 20.0848 143.56 20.7034 144.078 21.3186C144.935 22.3428 145.775 23.3738 146.587 24.4324C146.741 24.6317 146.895 24.8311 147.056 25.0373C147.35 25.4257 147.643 25.8106 147.934 26.2024C149.554 28.3161 149.554 28.3161 151.965 29.2578C153.253 29.0584 153.847 28.6426 154.859 27.8486C159.586 24.2812 159.586 24.2812 161.419 24.2812C161.143 26.9516 160.573 29.5602 160.02 32.186C159.789 32.186 159.558 32.186 159.32 32.186C158.802 31.1687 158.949 30.2132 158.97 29.0928C157.518 29.7561 156.356 30.3094 155.142 31.3474C153.529 32.6087 151.895 33.1964 149.83 33.2376C147.297 32.32 145.617 30.0311 143.924 28.0617C143.606 27.6974 143.291 27.3366 142.972 26.9722C141.377 25.1541 139.791 23.3292 138.217 21.4939C136.429 19.4077 134.613 17.349 132.727 15.3453C132.524 15.1254 132.321 14.9089 132.111 14.682C127.992 10.4306 123.794 9.24835 117.982 9.0112C117.432 8.98714 116.883 8.96309 116.333 8.93559C116.05 8.92528 115.767 8.91153 115.476 8.89779C100.115 8.19667 100.115 8.19667 94.0232 6.382C91.9132 5.81836 89.7578 5.60871 87.5883 5.37844C87.5883 5.15161 87.5883 4.92477 87.5883 4.69107Z" fill="white"/>
<path d="M106.658 68.4663C107.155 68.7206 107.652 68.9749 108.145 69.2258C108.394 69.353 108.642 69.4836 108.901 69.6142C113.639 72.0509 118.863 74.3261 124.28 74.5667C124.591 74.5839 124.903 74.5977 125.221 74.6114C125.7 74.632 125.7 74.632 126.187 74.6526C126.512 74.6664 126.841 74.6836 127.174 74.6973C127.975 74.7351 128.776 74.7695 129.577 74.8039C129.168 76.0136 128.948 76.2542 127.828 76.866C126.918 76.9588 126.068 77.0069 125.162 77.0172C122.744 77.0997 120.928 77.5705 118.73 78.5844C114.272 80.4987 108.198 80.1448 103.684 78.5844C102.816 78.1754 102.05 77.7183 101.235 77.2097C100.44 76.9485 100.44 76.9485 99.8351 76.866C99.7196 77.3197 99.6041 77.7733 99.4852 78.2407C97.8196 77.6083 97.4032 76.536 96.6789 75.0101C96.0631 73.4085 96.154 72.2606 96.6859 70.659C97.7041 69.188 99.1003 67.9783 100.822 67.3562C103.117 67.0125 104.65 67.3871 106.658 68.4663Z" fill="#6AD03F"/>
<path d="M137.538 83.0085C140.355 83.9674 141.943 86.734 143.224 89.2361C145.215 94.0374 145.155 99.4745 143.322 104.338C140.656 110.534 135.799 114.971 129.598 117.762C126.46 118.889 123.069 118.601 119.78 118.449C119.65 117.68 119.65 117.68 119.78 116.731C121.337 115.408 123.143 114.861 125.074 114.219C130.057 112.483 134.795 110.228 137.23 105.389C137.615 104.595 137.972 103.795 138.325 102.984C138.448 102.705 138.57 102.427 138.696 102.138C140.176 98.5053 140.351 94.1611 138.847 90.5215C138.003 88.9989 136.912 87.6861 135.781 86.3594C135.176 85.4555 135.176 85.4555 135.232 84.6891C135.806 83.5034 136.152 83.0703 137.538 83.0085Z" fill="#1C1F12"/>
<path d="M57.1461 123.263C57.3211 123.359 57.496 123.452 57.6745 123.551C60.0294 124.717 62.2338 124.902 64.8442 124.981C64.8442 125.095 64.8442 125.208 64.8442 125.325C63.9204 125.438 62.9966 125.552 62.0449 125.669C62.2758 125.782 62.5067 125.895 62.7447 126.012C63.1051 127.225 63.3955 128.452 63.6929 129.683C64.0499 130.848 64.0499 130.848 64.9316 131.494C66.0653 131.92 66.8491 131.924 68.0598 131.855C70.1628 131.803 72.1118 131.996 74.1833 132.35C74.4562 132.394 74.7256 132.443 75.0091 132.491C76.0798 132.68 77.105 132.889 78.1408 133.23C77.7664 134.233 77.5179 134.872 76.7411 135.635C76.5802 136.313 76.5802 136.313 76.5242 137.051C76.4577 137.711 76.4577 137.711 76.3912 138.385C76.6571 138.412 76.9266 138.443 77.1995 138.471C78.2702 138.684 79.068 138.949 80.0653 139.351C83.246 140.54 86.6926 140.939 90.0377 141.478C90.1532 141.818 90.2687 142.159 90.3876 142.509C89.4534 143.427 88.5226 144.341 87.5883 145.259C87.3609 145.52 87.137 145.778 86.9025 146.046C86.1887 146.633 86.1887 146.633 85.3699 146.678C80.7861 145.695 76.8636 143.86 72.8921 141.478C72.6052 141.31 72.3147 141.138 72.0173 140.963C70.0998 139.777 68.4727 138.337 66.8141 136.821C66.0338 136.11 65.243 135.429 64.4278 134.756C61.45 132.185 57.664 128.397 57.1461 124.359C57.1461 123.998 57.1461 123.634 57.1461 123.263Z" fill="#A78558"/>
<path d="M145.324 119.482C144.809 123.404 142.23 127.638 139.179 130.202C137.255 131.604 137.255 131.604 135.628 131.48C135.148 131.449 135.148 131.449 134.658 131.415C133.986 131.363 133.315 131.315 132.643 131.264C130.333 131.106 130.333 131.106 128.178 131.855C127.135 132.219 126.082 132.553 125.029 132.886C124.591 133.034 124.591 133.034 124.147 133.182C122.261 133.786 120.711 134.024 118.73 133.917C118.73 134.597 118.73 135.278 118.73 135.979C118.615 135.979 118.499 135.979 118.38 135.979C118.37 134.632 118.363 133.288 118.359 131.941C118.356 131.559 118.352 131.178 118.349 130.783C118.349 130.415 118.349 130.047 118.345 129.669C118.345 129.332 118.342 128.992 118.342 128.645C118.377 127.823 118.492 127.14 118.73 126.356C119.003 126.346 119.28 126.332 119.563 126.322C128.801 125.892 135.579 123.971 143.777 119.864C144.624 119.482 144.624 119.482 145.324 119.482Z" fill="#A48457"/>
<path d="M99.8351 124.637C100.622 125.27 101.018 125.837 101.585 126.7C101.102 128.119 100.458 128.243 99.1143 128.913C93.4003 131.676 87.3853 131.92 81.1289 131.92C80.3101 131.92 79.4948 131.927 78.676 131.931C74.2182 131.948 69.4874 131.759 65.194 130.48C64.963 130.253 64.7321 130.026 64.4941 129.793C64.5466 128.645 64.7391 127.899 65.3479 126.913C66.926 125.93 68.6826 126.242 70.4881 126.435C72.5736 126.662 74.6345 126.765 76.7305 126.782C77.2134 126.786 77.2134 126.786 77.7068 126.789C78.3821 126.796 79.0609 126.799 79.7362 126.803C80.4186 126.806 81.0974 126.813 81.7762 126.823C86.374 126.892 90.4995 126.504 94.9364 125.325C98.5369 124.411 98.5369 124.411 99.8351 124.637Z" fill="#211D10"/>
<path d="M20.0556 65.8671C21.9066 65.6952 22.7884 66.1455 24.2545 67.2418C24.083 69.3899 23.0858 71.1427 22.134 73.0432C21.8716 73.5691 21.8716 73.5691 21.6057 74.1087C21.0913 75.1432 20.5734 76.1777 20.0556 77.2087C19.8526 77.6143 19.8526 77.6143 19.6462 78.0267C18.6489 79.9995 17.6412 81.9653 16.6229 83.9278C15.1498 86.7735 13.7432 89.6502 12.361 92.5406C12.1581 92.9702 11.9516 93.3963 11.7452 93.8225C10.0516 97.3316 9.15934 100.139 9.01238 104.033C8.84442 105.13 8.56099 105.611 7.80868 106.422C7.3468 106.309 6.88492 106.195 6.40904 106.078C5.83169 104.332 5.60425 102.841 5.60075 100.988C5.59375 100.538 5.58675 100.091 5.58325 99.6274C5.7792 95.9843 7.65122 92.7227 9.22932 89.4955C9.47426 88.9903 9.7192 88.4816 9.96413 87.9764C10.4855 86.9007 11.0069 85.8249 11.5317 84.7492C12.8194 82.1063 14.0966 79.4564 15.3738 76.8066C15.7831 75.9543 16.196 75.1054 16.6089 74.253C16.8644 73.7272 17.1163 73.1979 17.3717 72.6721C17.5432 72.3181 17.5432 72.3181 17.7182 71.9572C19.1948 69.0152 19.1948 69.0152 20.0556 65.8671Z" fill="white"/>
<path d="M70.0928 12.2521C70.6107 12.2418 71.1285 12.2349 71.6464 12.2315C71.9333 12.228 72.2202 12.2211 72.5177 12.2177C73.242 12.2521 73.242 12.2521 73.5919 12.5958C73.7249 13.3691 73.7249 13.3691 73.5919 14.3142C72.1852 16.012 70.4742 16.7853 68.4972 17.7304C61.8629 21.0195 55.8864 25.405 50.6972 30.6152C49.9239 31.3748 49.1436 32.0759 48.3108 32.7667C46.5998 34.2068 45.1931 35.8805 43.769 37.5921C43.4996 37.9048 43.2301 38.221 42.9537 38.5441C42.7053 38.8396 42.4603 39.1318 42.2084 39.4342C41.4001 40.0907 41.4001 40.0907 40.2979 40.2075C39.3007 40.0907 39.3007 40.0907 38.6008 39.747C38.7793 38.2485 39.2447 37.5749 40.3084 36.5026C41.6241 35.1244 42.8312 33.705 44.0035 32.2065C45.704 30.0516 47.4396 27.8898 49.4481 25.9995C49.679 25.9995 49.9099 25.9995 50.1479 25.9995C50.1479 25.7727 50.1479 25.5459 50.1479 25.3122C50.5993 24.8516 50.5993 24.8516 51.2641 24.3017C51.5195 24.0886 51.7785 23.8755 52.0409 23.6556C52.3418 23.4081 52.6392 23.1607 52.9472 22.9064C53.2831 22.6177 53.6155 22.3255 53.9619 22.03C58.4828 18.136 63.9798 13.6956 70.0928 12.9395C70.0928 12.7126 70.0928 12.4858 70.0928 12.2521Z" fill="white"/>
<path d="M96.336 8.81518C98.3795 8.76706 99.8141 8.94922 101.378 10.3068C101.861 10.7776 102.34 11.2519 102.809 11.7365C103.292 12.2142 103.779 12.6885 104.265 13.1662C104.471 13.3759 104.681 13.589 104.895 13.8089C105.416 14.3485 105.416 14.3485 106.133 14.6578C106.133 14.8847 106.133 15.1115 106.133 15.3452C106.424 15.4621 106.424 15.4621 106.718 15.5789C107.789 16.1735 108.53 16.933 109.391 17.7923C109.563 17.9641 109.731 18.1325 109.906 18.3078C111.078 19.4798 112.187 20.6895 113.272 21.9371C113.828 22.5558 114.409 23.1297 115.014 23.7002C115.99 24.6419 116.848 25.6352 117.702 26.6869C119.595 28.993 121.659 31.1273 123.731 33.2788C130.977 40.833 130.977 40.833 130.977 42.1527C131.499 42.3246 131.499 42.3246 132.027 42.4964C132.741 43.3213 132.741 43.3213 133.493 44.3455C133.741 44.6788 133.993 45.0156 134.252 45.3628C134.826 46.277 134.826 46.277 134.826 47.308C133.325 47.6483 131.824 47.9885 130.277 48.3391C130.148 47.9988 130.018 47.6586 129.885 47.308C129.196 45.7443 128.209 44.5036 127.128 43.1838C126.897 42.8951 126.666 42.6098 126.428 42.3143C124.903 40.4481 123.307 38.6678 121.656 36.9115C118.349 33.3887 115.249 29.7938 112.407 25.8964C111.274 24.3429 110.084 22.8823 108.789 21.4594C108.079 20.6758 107.414 19.8613 106.746 19.0398C104.02 15.7645 101.245 12.826 97.8861 10.1762C97.0358 9.50255 97.0358 9.50255 96.336 8.81518Z" fill="#2D8418"/>
<path d="M71.4925 82.7078C72.1258 83.3951 72.1258 83.3951 72.5422 84.0825C72.0943 85.0414 71.6114 85.7597 70.8801 86.5296C68.3888 89.3203 66.8037 92.2691 66.8351 96.0256C66.8386 96.3899 66.8386 96.3899 66.8386 96.7611C66.9191 100.177 67.9129 102.734 70.0928 105.391C70.8906 106.133 71.7269 106.69 72.6437 107.285C74.6067 108.584 76.5207 109.917 77.7909 111.921C77.7909 112.375 77.7909 112.828 77.7909 113.296C75.7054 113.98 73.8649 113.877 71.8634 112.973C67.1991 110.454 64.6727 106.69 62.7447 101.954C62.3598 100.531 62.3038 99.1257 62.2618 97.6581C62.2478 97.2148 62.2303 96.7714 62.2128 96.3143C62.4368 94.7849 62.9686 94.345 64.1443 93.362C64.5852 92.4994 64.5257 91.7501 64.5432 90.7981C64.5957 88.5161 64.6622 86.7117 66.3103 84.9589C69.568 82.2232 69.568 82.2232 71.4925 82.7078Z" fill="#1F2116"/>
<path d="M38.6007 89.9253C38.8317 89.9253 39.0626 89.9253 39.3005 89.9253C38.7827 91.5956 38.0899 93.101 37.2886 94.651C37.1626 94.895 37.0401 95.139 36.9107 95.3899C36.0814 96.988 35.1856 98.5278 34.2233 100.054C33.2471 101.679 32.4248 103.387 31.578 105.082C31.1336 105.975 30.6787 106.862 30.2274 107.752C29.9894 108.216 29.755 108.68 29.517 109.141C28.9467 110.268 28.3728 111.392 27.7885 112.516C27.0642 113.915 26.3539 115.32 25.654 116.733C25.4966 117.052 25.3356 117.372 25.1712 117.702C22.2599 123.521 22.2599 123.521 20.7553 129.793C20.7168 130.106 20.6748 130.422 20.6363 130.745C20.5523 131.456 20.4789 132.171 20.4054 132.886C20.2899 133.113 20.1744 133.34 20.0555 133.573C19.709 133.46 19.3626 133.347 19.0057 133.23C18.7538 132.687 18.5054 132.14 18.2814 131.583C17.3437 129.398 16.1155 127.353 14.6983 125.432C12.228 122.036 10.307 118.334 8.5504 114.54C8.35795 114.124 8.35795 114.124 8.162 113.702C5.74762 108.361 5.74762 108.361 6.40895 106.422C6.52442 106.762 6.63989 107.103 6.75886 107.453C7.02479 107.426 7.29422 107.398 7.57065 107.371C8.50841 107.453 8.50841 107.453 9.06477 108.013C9.22223 108.271 9.37969 108.529 9.54065 108.794C9.80308 109.22 9.80308 109.22 10.0725 109.653C10.251 109.948 10.4259 110.244 10.6079 110.546C10.9508 111.083 11.2902 111.622 11.6331 112.158C14.4079 116.643 16.8993 121.184 19.0057 126.012C19.2367 125.218 19.4676 124.425 19.7055 123.607C19.821 123.833 19.9365 124.06 20.0555 124.294C20.5173 124.294 20.9792 124.294 21.4551 124.294C21.5496 124.012 21.6406 123.734 21.735 123.442C22.2109 122.067 22.7253 120.713 23.2466 119.352C23.3446 119.101 23.4426 118.846 23.5406 118.585C23.7785 117.97 24.0164 117.351 24.2544 116.733C24.4853 116.733 24.7163 116.733 24.9542 116.733C25.0487 116.434 25.1432 116.138 25.2376 115.832C25.6435 114.698 26.1579 113.681 26.7038 112.609C26.7702 112.354 26.8332 112.096 26.8997 111.835C27.0537 111.234 27.0537 111.234 27.7535 110.546C27.9774 109.835 27.9774 109.835 28.1034 109.172C28.3343 109.172 28.5653 109.172 28.8032 109.172C29.1496 108.038 29.496 106.903 29.853 105.735C30.0839 105.735 30.3148 105.735 30.5528 105.735C30.6682 105.054 30.7837 104.374 30.9027 103.673C31.1336 103.673 31.3646 103.673 31.6025 103.673C31.9489 102.652 31.9489 102.652 32.3023 101.611C32.5333 101.611 32.7642 101.611 33.0022 101.611C33.0511 101.267 33.0511 101.267 33.1036 100.916C33.422 99.6001 33.9679 98.4487 34.5558 97.2286C34.6642 96.9949 34.7727 96.7578 34.8847 96.5172C35.714 94.7781 35.714 94.7781 36.5013 94.3932C36.8897 93.6509 37.2501 92.8982 37.593 92.1386C37.7819 91.7262 37.9709 91.3138 38.1668 90.8911C38.3103 90.5714 38.4538 90.2518 38.6007 89.9253Z" fill="#398A18"/>
<path d="M125.029 51.0886C125.144 51.3155 125.26 51.5423 125.379 51.776C125.599 51.7245 125.82 51.6695 126.047 51.6179C135.05 50.0816 145.047 50.824 154.071 51.776C154.071 52.5699 154.071 53.3638 154.071 54.1818C152.962 54.5461 152.168 54.5702 151.003 54.577C150.376 54.577 150.376 54.577 149.739 54.5805C149.285 54.5839 148.833 54.5839 148.364 54.5839C147.888 54.5839 147.409 54.5839 146.933 54.5874C145.925 54.5874 144.921 54.5908 143.913 54.5908C142.902 54.5908 141.887 54.5908 140.876 54.5977C134.158 54.6286 127.527 54.4224 120.83 53.8381C120.83 53.6113 120.83 53.3845 120.83 53.1507C122.215 52.4702 123.601 51.7898 125.029 51.0886Z" fill="#2E8C22"/>
<path d="M106.658 68.4664C107.155 68.7207 107.652 68.975 108.145 69.2259C108.394 69.3531 108.642 69.4837 108.901 69.6143C113.639 72.051 118.863 74.3262 124.28 74.5668C124.591 74.584 124.903 74.5977 125.221 74.6115C125.7 74.6321 125.7 74.6321 126.187 74.6527C126.512 74.6665 126.841 74.6836 127.174 74.6974C127.975 74.7352 128.776 74.7696 129.577 74.8039C129.175 75.9897 128.899 76.2302 127.828 76.8661C120.469 78.2855 112.978 75.5772 106.718 72.0407C104.909 71.0337 103.681 70.3738 101.585 70.6797C100.619 71.1643 100.619 71.1643 99.8351 71.7108C99.6041 71.7108 99.3732 71.7108 99.1352 71.7108C98.9043 72.5047 98.6734 73.2986 98.4354 74.1166C97.8546 74.2472 97.2737 74.3606 96.6859 74.4603C96.336 74.1166 96.336 74.1166 96.2485 73.0202C96.3639 71.3052 96.7104 70.2501 98.0295 69.0747C100.913 66.8579 103.383 66.7033 106.658 68.4664Z" fill="white"/>
<path d="M42.0998 57.9623C42.3552 58.6978 42.3552 58.6978 42.4497 59.3371C42.2328 59.3749 42.0158 59.4127 41.7919 59.4505C39.9374 59.777 38.0933 60.1275 36.2493 60.509C33.3835 61.083 30.5003 61.4817 27.603 61.8494C26.7492 61.9559 25.8989 62.0694 25.0487 62.1828C22.2984 62.5436 19.5516 62.8495 16.7838 63.0386C16.5423 63.0557 16.3009 63.0764 16.0525 63.097C14.0825 63.2104 12.5918 62.8083 10.9578 61.7429C10.9578 61.516 10.9578 61.2892 10.9578 61.0555C16.4409 59.9866 21.938 58.9968 27.4456 58.0482C27.9074 57.9692 27.9074 57.9692 28.3763 57.8867C29.2616 57.7355 30.1504 57.5808 31.0356 57.4296C31.431 57.3609 31.431 57.3609 31.8334 57.2921C39.549 55.9827 39.549 55.9827 42.0998 57.9623Z" fill="#EFF8F0"/>
<path d="M134.126 99.5484C134.357 99.7752 134.588 100.002 134.826 100.236C135.561 100.37 135.561 100.37 136.38 100.408C137.605 100.487 137.954 100.566 139.025 101.267C137.979 105.501 136.016 108.673 132.377 111.234C129.427 112.997 126.225 114.265 122.978 115.392C121.159 116.025 120.326 116.351 119.43 118.107C119.43 116.86 119.43 115.612 119.43 114.327C120.085 114.007 120.085 114.007 120.749 113.684C126.981 110.591 131.345 107.584 133.777 100.923C133.902 100.466 134.021 100.009 134.126 99.5484Z" fill="#B08D62"/>
<path d="M62.7447 101.954C63.6055 102.996 64.1513 104.04 64.7112 105.26C66.4223 108.656 68.6862 111.028 72.1923 112.608C72.4162 112.736 72.6367 112.866 72.8676 112.997C73.7879 113.378 74.4772 113.327 75.4745 113.275C77.1365 113.244 78.0988 113.457 79.5404 114.327C79.9883 114.526 80.4432 114.719 80.8981 114.908C81.2585 115.056 81.6189 115.203 81.9898 115.358C82.1647 115.018 82.1647 115.018 82.3397 114.671C82.5706 115.011 82.8016 115.351 83.0395 115.702C78.0253 116.819 71.244 116.867 66.7757 114.141C65.9639 113.557 65.2291 112.938 64.4943 112.265C64.2528 112.052 64.0149 111.839 63.7664 111.619C61.5165 109.529 59.2736 107.041 58.5458 104.016C58.7592 103.972 58.9762 103.924 59.1966 103.879C59.48 103.817 59.7635 103.755 60.0539 103.693C60.3338 103.635 60.6137 103.573 60.9042 103.515C61.7475 103.329 61.7475 103.329 62.7447 102.985C62.7447 102.645 62.7447 102.305 62.7447 101.954Z" fill="#B08F64"/>
<path d="M99.8351 76.8652C101.025 77.0164 101.98 77.3739 103.051 77.8756C107.862 79.9928 113.93 79.9962 118.87 78.2709C119.588 77.9753 120.291 77.6419 120.984 77.2948C122.985 76.604 125.025 76.7896 127.128 76.8652C125.165 78.9033 122.555 80.0099 119.955 81.0754C119.675 81.1957 119.392 81.3159 119.105 81.4397C114.465 83.3609 108.912 83.1409 104.167 81.6115C102.344 80.6526 100.559 79.6284 98.7854 78.5836C99.0163 78.4702 99.2473 78.3568 99.4852 78.24C99.7127 77.5457 99.7127 77.5457 99.8351 76.8652Z" fill="#298714"/>
<path d="M80.2401 134.261C81.2549 134.646 82.2416 135.075 83.2319 135.505C86.6225 136.835 90.2476 137.546 93.8866 137.698C93.3863 138.79 92.7704 139.615 91.9621 140.512C91.6437 140.87 91.6437 140.87 91.3183 141.234C90.7375 141.822 90.7375 141.822 90.0376 142.165C90.0376 141.939 90.0376 141.712 90.0376 141.478C89.5303 141.495 89.5303 141.495 89.0124 141.516C87.4273 141.512 85.9402 141.224 84.3971 140.897C84.1066 140.839 83.8162 140.777 83.5188 140.715C81.0309 140.172 78.725 139.388 76.3911 138.385C76.2232 135.9 76.2232 135.9 76.937 134.776C78.0987 134.075 78.9385 133.989 80.2401 134.261Z" fill="#1D1D0E"/>
<path d="M80.2401 105.735C80.4186 105.831 80.6005 105.927 80.786 106.03C82.588 106.859 84.5405 107.347 86.4475 107.9C87.1998 108.13 87.9381 108.378 88.68 108.636C94.1246 110.395 99.7756 110.021 105.434 109.859C104.111 110.725 102.746 111.193 101.256 111.729C100.958 111.835 100.661 111.942 100.353 112.052C95.8916 113.629 92.396 114.753 87.8892 112.798C86.7065 112.169 85.9052 111.467 85.0164 110.488C84.3831 109.797 83.6972 109.213 82.9729 108.615C81.9302 107.732 81.0519 106.831 80.2401 105.735Z" fill="#A68359"/>
<path d="M87.2383 59.3372C88.4875 60.3855 88.9283 61.0247 89.1838 62.6229C88.9493 64.0285 88.6799 64.5887 87.5882 65.5236C86.4055 65.9085 86.4055 65.9085 85.1388 65.8673C83.9106 65.1902 83.1163 64.2622 82.3395 63.1178C82.1646 62.1279 82.1646 62.1279 82.3395 61.0556C83.8511 59.3475 84.9639 58.9454 87.2383 59.3372Z" fill="#020F10"/>
</svg>
